<?xml version="1.0" encoding="UTF-8"?>
<svg xmlns="http://www.w3.org/2000/svg" xmlns:xlink="http://www.w3.org/1999/xlink" width="20pt" height="20pt" viewBox="0 0 20 20" version="1.1">
<g id="surface1">
<path style=" stroke:none;fill-rule:nonzero;fill:rgb(0%,0%,0%);fill-opacity:1;" d="M 8.332031 1.667969 L 7.5 2.5 L 3.332031 2.5 L 3.332031 4.167969 L 4.167969 4.167969 L 4.167969 16.667969 C 4.167969 17.101562 4.324219 17.546875 4.640625 17.859375 C 4.953125 18.175781 5.398438 18.332031 5.832031 18.332031 L 14.167969 18.332031 C 14.601562 18.332031 15.046875 18.175781 15.359375 17.859375 C 15.675781 17.546875 15.832031 17.101562 15.832031 16.667969 L 15.832031 4.167969 L 16.667969 4.167969 L 16.667969 2.5 L 12.5 2.5 L 11.667969 1.667969 Z M 5.832031 4.167969 L 14.167969 4.167969 L 14.167969 16.667969 L 5.832031 16.667969 Z M 7.5 5.832031 L 7.5 15 L 9.167969 15 L 9.167969 5.832031 Z M 10.832031 5.832031 L 10.832031 15 L 12.5 15 L 12.5 5.832031 Z M 10.832031 5.832031 "/>
</g>
</svg>
